<svg width="1448" height="183" viewBox="0 0 1448 183" fill="none" xmlns="http://www.w3.org/2000/svg">
<g filter="url(#filter0_dn_3_2)">
<rect width="1440" height="110" transform="translate(4)" fill="#0D0757"/>
<path d="M38.3474 73L51.9794 39.688H55.2434L68.8274 73H63.9314L52.7474 44.824H54.4274L43.1474 73H38.3474ZM44.8274 65.464V61.528H62.3474V65.464H44.8274ZM89.5773 73V59.704C89.5773 57.976 89.0333 56.552 87.9453 55.432C86.8573 54.312 85.4493 53.752 83.7213 53.752C82.5693 53.752 81.5453 54.008 80.6493 54.52C79.7533 55.032 79.0493 55.736 78.5373 56.632C78.0253 57.528 77.7693 58.552 77.7693 59.704L75.9933 58.696C75.9933 56.968 76.3773 55.432 77.1453 54.088C77.9133 52.744 78.9853 51.688 80.3613 50.92C81.7373 50.12 83.2893 49.72 85.0173 49.72C86.7453 49.72 88.2653 50.152 89.5773 51.016C90.9213 51.88 91.9773 53.016 92.7453 54.424C93.5133 55.8 93.8973 57.272 93.8973 58.84V73H89.5773ZM73.4492 73V50.2H77.7693V73H73.4492ZM99.7941 73V50.2H104.114V73H99.7941ZM101.954 45.64C101.154 45.64 100.498 45.384 99.9861 44.872C99.4741 44.328 99.2181 43.656 99.2181 42.856C99.2181 42.088 99.4741 41.448 99.9861 40.936C100.498 40.392 101.154 40.12 101.954 40.12C102.754 40.12 103.41 40.392 103.922 40.936C104.434 41.448 104.69 42.088 104.69 42.856C104.69 43.656 104.434 44.328 103.922 44.872C103.41 45.384 102.754 45.64 101.954 45.64ZM113.745 73V46.072C113.745 44.568 114.065 43.24 114.705 42.088C115.377 40.904 116.305 39.976 117.489 39.304C118.673 38.6 120.033 38.248 121.569 38.248C122.753 38.248 123.793 38.456 124.689 38.872C125.585 39.256 126.417 39.8 127.185 40.504L124.353 43.336C123.937 42.984 123.505 42.728 123.057 42.568C122.609 42.376 122.113 42.28 121.569 42.28C120.449 42.28 119.585 42.632 118.977 43.336C118.369 44.008 118.065 44.92 118.065 46.072V73H113.745ZM108.129 54.136V50.2H129.777V54.136H108.129ZM127.281 73V50.2H131.649V73H127.281ZM129.441 47.8C128.673 47.8 128.033 47.544 127.521 47.032C127.009 46.488 126.753 45.816 126.753 45.016C126.753 44.248 127.009 43.608 127.521 43.096C128.033 42.552 128.673 42.28 129.441 42.28C130.273 42.28 130.929 42.552 131.409 43.096C131.921 43.608 132.177 44.248 132.177 45.016C132.177 45.816 131.921 46.488 131.409 47.032C130.929 47.544 130.273 47.8 129.441 47.8ZM148.556 73.48C146.284 73.48 144.236 72.968 142.412 71.944C140.588 70.888 139.148 69.464 138.092 67.672C137.036 65.88 136.508 63.848 136.508 61.576C136.508 59.336 137.02 57.32 138.044 55.528C139.1 53.736 140.508 52.328 142.268 51.304C144.06 50.248 146.06 49.72 148.268 49.72C150.38 49.72 152.236 50.2 153.836 51.16C155.468 52.12 156.732 53.448 157.628 55.144C158.556 56.84 159.02 58.76 159.02 60.904C159.02 61.224 159.004 61.576 158.972 61.96C158.94 62.312 158.876 62.728 158.78 63.208H139.532V59.608H156.476L154.892 61C154.892 59.464 154.62 58.168 154.076 57.112C153.532 56.024 152.764 55.192 151.772 54.616C150.78 54.008 149.58 53.704 148.172 53.704C146.7 53.704 145.404 54.024 144.284 54.664C143.164 55.304 142.3 56.2 141.692 57.352C141.084 58.504 140.78 59.864 140.78 61.432C140.78 63.032 141.1 64.44 141.74 65.656C142.38 66.84 143.292 67.768 144.476 68.44C145.66 69.08 147.02 69.4 148.556 69.4C149.836 69.4 151.004 69.176 152.06 68.728C153.148 68.28 154.076 67.608 154.844 66.712L157.628 69.544C156.54 70.824 155.196 71.8 153.596 72.472C152.028 73.144 150.348 73.48 148.556 73.48ZM163.73 73V38.728H168.051V73H163.73ZM184.019 73.48C181.907 73.48 180.019 72.968 178.355 71.944C176.691 70.888 175.363 69.464 174.371 67.672C173.411 65.88 172.931 63.864 172.931 61.624C172.931 59.384 173.411 57.368 174.371 55.576C175.363 53.784 176.691 52.36 178.355 51.304C180.019 50.248 181.907 49.72 184.019 49.72C185.715 49.72 187.251 50.088 188.627 50.824C190.003 51.528 191.107 52.52 191.939 53.8C192.803 55.048 193.283 56.504 193.379 58.168V65.032C193.283 66.664 192.819 68.12 191.987 69.4C191.155 70.68 190.051 71.688 188.675 72.424C187.299 73.128 185.747 73.48 184.019 73.48ZM184.739 69.4C186.179 69.4 187.427 69.064 188.483 68.392C189.571 67.72 190.419 66.808 191.027 65.656C191.635 64.472 191.939 63.128 191.939 61.624C191.939 60.056 191.619 58.696 190.979 57.544C190.371 56.392 189.523 55.48 188.435 54.808C187.379 54.136 186.131 53.8 184.691 53.8C183.251 53.8 181.987 54.136 180.899 54.808C179.811 55.48 178.947 56.408 178.307 57.592C177.699 58.744 177.395 60.072 177.395 61.576C177.395 63.112 177.699 64.472 178.307 65.656C178.947 66.808 179.811 67.72 180.899 68.392C182.019 69.064 183.299 69.4 184.739 69.4ZM196.019 73H191.651V66.856L192.467 61.288L191.651 55.768V38.728H196.019V73Z" fill="white"/>
<g filter="url(#filter1_dn_3_2)">
<path d="M395.999 67V44.792H399.007V67H395.999ZM410.335 67V44.792H413.343V67H410.335ZM398.047 56.888V54.136H411.071V56.888H398.047ZM425.025 67.32C423.531 67.32 422.187 66.968 420.993 66.264C419.798 65.56 418.849 64.6107 418.145 63.416C417.441 62.2 417.089 60.8453 417.089 59.352C417.089 57.88 417.441 56.5573 418.145 55.384C418.849 54.1893 419.798 53.24 420.993 52.536C422.187 51.832 423.531 51.48 425.025 51.48C426.497 51.48 427.83 51.832 429.025 52.536C430.241 53.2187 431.201 54.1573 431.905 55.352C432.609 56.5467 432.961 57.88 432.961 59.352C432.961 60.8453 432.609 62.2 431.905 63.416C431.201 64.6107 430.241 65.56 429.025 66.264C427.83 66.968 426.497 67.32 425.025 67.32ZM425.025 64.536C425.985 64.536 426.838 64.312 427.585 63.864C428.331 63.416 428.918 62.808 429.345 62.04C429.771 61.2507 429.985 60.3547 429.985 59.352C429.985 58.3707 429.761 57.496 429.313 56.728C428.886 55.96 428.299 55.3627 427.553 54.936C426.827 54.488 425.985 54.264 425.025 54.264C424.065 54.264 423.211 54.488 422.465 54.936C421.718 55.3627 421.131 55.96 420.705 56.728C420.278 57.496 420.065 58.3707 420.065 59.352C420.065 60.3547 420.278 61.2507 420.705 62.04C421.131 62.808 421.718 63.416 422.465 63.864C423.211 64.312 424.065 64.536 425.025 64.536ZM436.206 67V51.8H439.086V67H436.206ZM446.478 67V57.816C446.478 56.6853 446.126 55.8 445.422 55.16C444.739 54.4987 443.875 54.168 442.83 54.168C442.126 54.168 441.496 54.3173 440.942 54.616C440.387 54.9147 439.939 55.3307 439.598 55.864C439.256 56.3973 439.086 57.0373 439.086 57.784L437.902 57.208C437.902 56.056 438.147 55.0533 438.638 54.2C439.15 53.3467 439.843 52.6853 440.718 52.216C441.592 51.7253 442.574 51.48 443.662 51.48C444.728 51.48 445.688 51.7147 446.542 52.184C447.416 52.6533 448.099 53.3147 448.59 54.168C449.102 55.0213 449.358 56.0347 449.358 57.208V67H446.478ZM456.75 67V57.816C456.75 56.6853 456.398 55.8 455.694 55.16C455.011 54.4987 454.158 54.168 453.134 54.168C452.43 54.168 451.79 54.3173 451.214 54.616C450.659 54.9147 450.211 55.3307 449.87 55.864C449.528 56.3973 449.358 57.0373 449.358 57.784L447.726 57.208C447.79 56.0347 448.099 55.032 448.654 54.2C449.23 53.3467 449.966 52.6853 450.862 52.216C451.758 51.7253 452.739 51.48 453.806 51.48C454.915 51.48 455.907 51.7147 456.782 52.184C457.656 52.6533 458.35 53.3147 458.862 54.168C459.395 55.0213 459.662 56.0453 459.662 57.24V67H456.75ZM470.621 67.32C469.106 67.32 467.741 66.9787 466.525 66.296C465.309 65.592 464.349 64.6427 463.645 63.448C462.941 62.2533 462.589 60.8987 462.589 59.384C462.589 57.8907 462.93 56.5467 463.613 55.352C464.317 54.1573 465.255 53.2187 466.429 52.536C467.623 51.832 468.957 51.48 470.429 51.48C471.837 51.48 473.074 51.8 474.141 52.44C475.229 53.08 476.071 53.9653 476.669 55.096C477.287 56.2267 477.597 57.5067 477.597 58.936C477.597 59.1493 477.586 59.384 477.565 59.64C477.543 59.8747 477.501 60.152 477.437 60.472H464.605V58.072H475.901L474.845 59C474.845 57.976 474.663 57.112 474.301 56.408C473.938 55.6827 473.426 55.128 472.765 54.744C472.103 54.3387 471.303 54.136 470.365 54.136C469.383 54.136 468.519 54.3493 467.773 54.776C467.026 55.2027 466.45 55.8 466.045 56.568C465.639 57.336 465.437 58.2427 465.437 59.288C465.437 60.3547 465.65 61.2933 466.077 62.104C466.503 62.8933 467.111 63.512 467.901 63.96C468.69 64.3867 469.597 64.6 470.621 64.6C471.474 64.6 472.253 64.4507 472.957 64.152C473.682 63.8533 474.301 63.4053 474.813 62.808L476.669 64.696C475.943 65.5493 475.047 66.2 473.981 66.648C472.935 67.096 471.815 67.32 470.621 67.32Z" fill="white"/>
<rect opacity="0.1" x="370" width="138" height="110" fill="#0D0757"/>
</g>
<g filter="url(#filter2_d_3_2)">
<path d="M681.336 67L690.424 44.792H692.6L701.656 67H698.392L690.936 48.216H692.056L684.536 67H681.336ZM685.656 61.976V59.352H697.336V61.976H685.656ZM712.737 67.32C711.585 67.32 710.54 67.0853 709.601 66.616C708.684 66.1253 707.948 65.4533 707.393 64.6C706.838 63.7467 706.529 62.776 706.465 61.688V57.112C706.529 56.0027 706.838 55.032 707.393 54.2C707.969 53.3467 708.716 52.6853 709.633 52.216C710.572 51.7253 711.606 51.48 712.737 51.48C714.124 51.48 715.372 51.832 716.481 52.536C717.612 53.24 718.497 54.1893 719.137 55.384C719.777 56.5787 720.097 57.9227 720.097 59.416C720.097 60.9093 719.777 62.2533 719.137 63.448C718.497 64.6427 717.612 65.592 716.481 66.296C715.372 66.9787 714.124 67.32 712.737 67.32ZM704.737 67V44.152H707.617V55.512L707.073 59.192L707.617 62.904V67H704.737ZM712.257 64.6C713.217 64.6 714.06 64.376 714.785 63.928C715.51 63.48 716.086 62.872 716.513 62.104C716.94 61.3147 717.153 60.408 717.153 59.384C717.153 58.3813 716.94 57.4853 716.513 56.696C716.086 55.9067 715.51 55.2987 714.785 54.872C714.06 54.424 713.228 54.2 712.289 54.2C711.329 54.2 710.486 54.424 709.761 54.872C709.036 55.2987 708.47 55.9067 708.065 56.696C707.66 57.4853 707.457 58.392 707.457 59.416C707.457 60.4187 707.649 61.3147 708.033 62.104C708.438 62.872 709.004 63.48 709.729 63.928C710.476 64.376 711.318 64.6 712.257 64.6ZM730.306 67.32C728.813 67.32 727.469 66.968 726.274 66.264C725.079 65.56 724.13 64.6107 723.426 63.416C722.722 62.2 722.37 60.8453 722.37 59.352C722.37 57.88 722.722 56.5573 723.426 55.384C724.13 54.1893 725.079 53.24 726.274 52.536C727.469 51.832 728.813 51.48 730.306 51.48C731.778 51.48 733.111 51.832 734.306 52.536C735.522 53.2187 736.482 54.1573 737.186 55.352C737.89 56.5467 738.242 57.88 738.242 59.352C738.242 60.8453 737.89 62.2 737.186 63.416C736.482 64.6107 735.522 65.56 734.306 66.264C733.111 66.968 731.778 67.32 730.306 67.32ZM730.306 64.536C731.266 64.536 732.119 64.312 732.866 63.864C733.613 63.416 734.199 62.808 734.626 62.04C735.053 61.2507 735.266 60.3547 735.266 59.352C735.266 58.3707 735.042 57.496 734.594 56.728C734.167 55.96 733.581 55.3627 732.834 54.936C732.109 54.488 731.266 54.264 730.306 54.264C729.346 54.264 728.493 54.488 727.746 54.936C726.999 55.3627 726.413 55.96 725.986 56.728C725.559 57.496 725.346 58.3707 725.346 59.352C725.346 60.3547 725.559 61.2507 725.986 62.04C726.413 62.808 726.999 63.416 727.746 63.864C728.493 64.312 729.346 64.536 730.306 64.536ZM747.599 67.32C746.362 67.32 745.242 67.0427 744.239 66.488C743.258 65.912 742.49 65.1227 741.935 64.12C741.38 63.1173 741.103 61.9547 741.103 60.632V51.8H743.983V60.504C743.983 61.336 744.122 62.0613 744.399 62.68C744.698 63.2773 745.124 63.736 745.679 64.056C746.234 64.376 746.884 64.536 747.631 64.536C748.762 64.536 749.647 64.184 750.287 63.48C750.927 62.7547 751.247 61.7627 751.247 60.504V51.8H754.127V60.632C754.127 61.9547 753.85 63.1173 753.295 64.12C752.74 65.1227 751.972 65.912 750.991 66.488C750.031 67.0427 748.9 67.32 747.599 67.32ZM760.323 67V45.432H763.203V67H760.323ZM756.579 54.424V51.8H766.947V54.424H756.579Z" fill="white"/>
<rect opacity="0.1" x="658" width="138" height="110" fill="#0D0757"/>
</g>
<g filter="url(#filter3_d_3_2)">
<path d="M959.749 67V64.376H966.469C967.749 64.376 968.752 64.0027 969.477 63.256C970.203 62.488 970.565 61.5707 970.565 60.504C970.565 59.7787 970.405 59.128 970.085 58.552C969.765 57.9547 969.296 57.4853 968.677 57.144C968.08 56.8027 967.376 56.632 966.565 56.632H959.749V54.008H966.117C967.184 54.008 968.027 53.7307 968.645 53.176C969.285 52.6 969.605 51.7787 969.605 50.712C969.605 49.6453 969.275 48.8347 968.613 48.28C967.952 47.704 967.077 47.416 965.989 47.416H959.749V44.792H966.053C967.504 44.792 968.709 45.0587 969.669 45.592C970.651 46.104 971.387 46.7867 971.877 47.64C972.389 48.4933 972.645 49.432 972.645 50.456C972.645 51.6507 972.315 52.696 971.653 53.592C971.013 54.488 970.064 55.192 968.805 55.704L969.061 54.744C970.491 55.256 971.6 56.0347 972.389 57.08C973.2 58.104 973.605 59.32 973.605 60.728C973.605 61.9013 973.317 62.9573 972.741 63.896C972.165 64.8347 971.333 65.592 970.245 66.168C969.179 66.7227 967.867 67 966.309 67H959.749ZM957.733 67V44.792H960.741V67H957.733ZM984.103 67.32C982.61 67.32 981.266 66.968 980.071 66.264C978.876 65.56 977.927 64.6107 977.223 63.416C976.519 62.2 976.167 60.8453 976.167 59.352C976.167 57.88 976.519 56.5573 977.223 55.384C977.927 54.1893 978.876 53.24 980.071 52.536C981.266 51.832 982.61 51.48 984.103 51.48C985.575 51.48 986.908 51.832 988.103 52.536C989.319 53.2187 990.279 54.1573 990.983 55.352C991.687 56.5467 992.039 57.88 992.039 59.352C992.039 60.8453 991.687 62.2 990.983 63.416C990.279 64.6107 989.319 65.56 988.103 66.264C986.908 66.968 985.575 67.32 984.103 67.32ZM984.103 64.536C985.063 64.536 985.916 64.312 986.663 63.864C987.41 63.416 987.996 62.808 988.423 62.04C988.85 61.2507 989.063 60.3547 989.063 59.352C989.063 58.3707 988.839 57.496 988.391 56.728C987.964 55.96 987.378 55.3627 986.631 54.936C985.906 54.488 985.063 54.264 984.103 54.264C983.143 54.264 982.29 54.488 981.543 54.936C980.796 55.3627 980.21 55.96 979.783 56.728C979.356 57.496 979.143 58.3707 979.143 59.352C979.143 60.3547 979.356 61.2507 979.783 62.04C980.21 62.808 980.796 63.416 981.543 63.864C982.29 64.312 983.143 64.536 984.103 64.536ZM1002.23 67.32C1000.73 67.32 999.391 66.968 998.196 66.264C997.001 65.56 996.052 64.6107 995.348 63.416C994.644 62.2 994.292 60.8453 994.292 59.352C994.292 57.88 994.644 56.5573 995.348 55.384C996.052 54.1893 997.001 53.24 998.196 52.536C999.391 51.832 1000.73 51.48 1002.23 51.48C1003.7 51.48 1005.03 51.832 1006.23 52.536C1007.44 53.2187 1008.4 54.1573 1009.11 55.352C1009.81 56.5467 1010.16 57.88 1010.16 59.352C1010.16 60.8453 1009.81 62.2 1009.11 63.416C1008.4 64.6107 1007.44 65.56 1006.23 66.264C1005.03 66.968 1003.7 67.32 1002.23 67.32ZM1002.23 64.536C1003.19 64.536 1004.04 64.312 1004.79 63.864C1005.53 63.416 1006.12 62.808 1006.55 62.04C1006.97 61.2507 1007.19 60.3547 1007.19 59.352C1007.19 58.3707 1006.96 57.496 1006.52 56.728C1006.09 55.96 1005.5 55.3627 1004.76 54.936C1004.03 54.488 1003.19 54.264 1002.23 54.264C1001.27 54.264 1000.41 54.488 999.668 54.936C998.921 55.3627 998.335 55.96 997.908 56.728C997.481 57.496 997.268 58.3707 997.268 59.352C997.268 60.3547 997.481 61.2507 997.908 62.04C998.335 62.808 998.921 63.416 999.668 63.864C1000.41 64.312 1001.27 64.536 1002.23 64.536ZM1023.14 67L1016.03 59.224L1023.07 51.8H1026.56L1018.72 59.992L1018.85 58.328L1026.85 67H1023.14ZM1013.41 67V44.152H1016.29V67H1013.41ZM1028.82 67V51.8H1031.7V67H1028.82ZM1030.26 48.76C1029.72 48.76 1029.29 48.5893 1028.94 48.248C1028.6 47.8853 1028.43 47.4373 1028.43 46.904C1028.43 46.392 1028.6 45.9653 1028.94 45.624C1029.29 45.2613 1029.72 45.08 1030.26 45.08C1030.79 45.08 1031.23 45.2613 1031.57 45.624C1031.91 45.9653 1032.08 46.392 1032.08 46.904C1032.08 47.4373 1031.91 47.8853 1031.57 48.248C1031.23 48.5893 1030.79 48.76 1030.26 48.76ZM1046.69 67V58.136C1046.69 56.984 1046.33 56.0347 1045.6 55.288C1044.88 54.5413 1043.94 54.168 1042.79 54.168C1042.02 54.168 1041.34 54.3387 1040.74 54.68C1040.14 55.0213 1039.67 55.4907 1039.33 56.088C1038.99 56.6853 1038.82 57.368 1038.82 58.136L1037.64 57.464C1037.64 56.312 1037.89 55.288 1038.4 54.392C1038.92 53.496 1039.63 52.792 1040.55 52.28C1041.47 51.7467 1042.5 51.48 1043.65 51.48C1044.8 51.48 1045.82 51.768 1046.69 52.344C1047.59 52.92 1048.29 53.6773 1048.8 54.616C1049.32 55.5333 1049.57 56.5147 1049.57 57.56V67H1046.69ZM1035.94 67V51.8H1038.82V67H1035.94ZM1059.78 73.688C1058.22 73.688 1056.83 73.4 1055.62 72.824C1054.42 72.248 1053.46 71.4373 1052.74 70.392L1054.59 68.504C1055.21 69.2933 1055.95 69.8907 1056.8 70.296C1057.65 70.7227 1058.67 70.936 1059.84 70.936C1061.4 70.936 1062.62 70.52 1063.52 69.688C1064.44 68.8773 1064.9 67.7787 1064.9 66.392V62.616L1065.41 59.192L1064.9 55.8V51.8H1067.78V66.392C1067.78 67.8427 1067.43 69.112 1066.75 70.2C1066.09 71.288 1065.15 72.1413 1063.94 72.76C1062.74 73.3787 1061.35 73.688 1059.78 73.688ZM1059.78 66.744C1058.39 66.744 1057.14 66.4133 1056.03 65.752C1054.94 65.0907 1054.08 64.184 1053.44 63.032C1052.8 61.8587 1052.48 60.5467 1052.48 59.096C1052.48 57.6453 1052.8 56.3547 1053.44 55.224C1054.08 54.072 1054.94 53.1653 1056.03 52.504C1057.14 51.8213 1058.39 51.48 1059.78 51.48C1060.97 51.48 1062.03 51.7147 1062.94 52.184C1063.86 52.6533 1064.59 53.3147 1065.12 54.168C1065.67 55 1065.97 55.9813 1066.02 57.112V61.144C1065.95 62.2533 1065.64 63.2347 1065.09 64.088C1064.55 64.92 1063.83 65.5707 1062.91 66.04C1061.99 66.5093 1060.95 66.744 1059.78 66.744ZM1060.35 64.024C1061.29 64.024 1062.11 63.8213 1062.82 63.416C1063.54 63.0107 1064.1 62.4453 1064.48 61.72C1064.86 60.9733 1065.06 60.1093 1065.06 59.128C1065.06 58.1467 1064.85 57.2933 1064.45 56.568C1064.06 55.8213 1063.52 55.2453 1062.82 54.84C1062.11 54.4133 1061.28 54.2 1060.32 54.2C1059.36 54.2 1058.52 54.4133 1057.79 54.84C1057.07 55.2453 1056.49 55.8213 1056.06 56.568C1055.66 57.2933 1055.46 58.136 1055.46 59.096C1055.46 60.056 1055.66 60.9093 1056.06 61.656C1056.49 62.4027 1057.07 62.9893 1057.79 63.416C1058.54 63.8213 1059.39 64.024 1060.35 64.024Z" fill="white"/>
<rect opacity="0.1" x="946" width="138" height="110" fill="#0D0757"/>
</g>
<g filter="url(#filter4_d_3_2)">
<path d="M1265.05 57.32C1263.45 57.32 1261.97 57.032 1260.6 56.456C1259.23 55.8587 1258.04 55.0373 1257.02 53.992C1256.01 52.9467 1255.23 51.7307 1254.68 50.344C1254.13 48.9573 1253.85 47.4747 1253.85 45.896C1253.85 44.296 1254.13 42.8027 1254.68 41.416C1255.23 40.0293 1256.01 38.824 1257.02 37.8C1258.04 36.7547 1259.22 35.944 1260.57 35.368C1261.93 34.7707 1263.42 34.472 1265.02 34.472C1266.77 34.472 1268.3 34.7707 1269.62 35.368C1270.95 35.9653 1272.12 36.776 1273.14 37.8L1271.06 39.88C1270.36 39.0907 1269.5 38.472 1268.47 38.024C1267.47 37.576 1266.32 37.352 1265.02 37.352C1263.84 37.352 1262.77 37.5653 1261.78 37.992C1260.8 38.3973 1259.95 38.984 1259.22 39.752C1258.5 40.52 1257.93 41.4267 1257.53 42.472C1257.14 43.5173 1256.95 44.6587 1256.95 45.896C1256.95 47.1333 1257.14 48.2747 1257.53 49.32C1257.93 50.3653 1258.5 51.272 1259.22 52.04C1259.95 52.808 1260.8 53.4053 1261.78 53.832C1262.77 54.2373 1263.84 54.44 1265.02 54.44C1266.4 54.44 1267.61 54.216 1268.63 53.768C1269.66 53.2987 1270.52 52.6693 1271.22 51.88L1273.3 53.928C1272.28 54.9947 1271.07 55.8267 1269.69 56.424C1268.32 57.0213 1266.78 57.32 1265.05 57.32ZM1282.9 57.32C1281.41 57.32 1280.06 56.968 1278.87 56.264C1277.67 55.56 1276.72 54.6107 1276.02 53.416C1275.32 52.2 1274.96 50.8453 1274.96 49.352C1274.96 47.88 1275.32 46.5573 1276.02 45.384C1276.72 44.1893 1277.67 43.24 1278.87 42.536C1280.06 41.832 1281.41 41.48 1282.9 41.48C1284.37 41.48 1285.71 41.832 1286.9 42.536C1288.12 43.2187 1289.08 44.1573 1289.78 45.352C1290.48 46.5467 1290.84 47.88 1290.84 49.352C1290.84 50.8453 1290.48 52.2 1289.78 53.416C1289.08 54.6107 1288.12 55.56 1286.9 56.264C1285.71 56.968 1284.37 57.32 1282.9 57.32ZM1282.9 54.536C1283.86 54.536 1284.71 54.312 1285.46 53.864C1286.21 53.416 1286.79 52.808 1287.22 52.04C1287.65 51.2507 1287.86 50.3547 1287.86 49.352C1287.86 48.3707 1287.64 47.496 1287.19 46.728C1286.76 45.96 1286.17 45.3627 1285.43 44.936C1284.7 44.488 1283.86 44.264 1282.9 44.264C1281.94 44.264 1281.09 44.488 1280.34 44.936C1279.59 45.3627 1279.01 45.96 1278.58 46.728C1278.15 47.496 1277.94 48.3707 1277.94 49.352C1277.94 50.3547 1278.15 51.2507 1278.58 52.04C1279.01 52.808 1279.59 53.416 1280.34 53.864C1281.09 54.312 1281.94 54.536 1282.9 54.536ZM1304.83 57V48.136C1304.83 46.984 1304.47 46.0347 1303.74 45.288C1303.02 44.5413 1302.08 44.168 1300.93 44.168C1300.16 44.168 1299.48 44.3387 1298.88 44.68C1298.28 45.0213 1297.81 45.4907 1297.47 46.088C1297.13 46.6853 1296.96 47.368 1296.96 48.136L1295.78 47.464C1295.78 46.312 1296.03 45.288 1296.54 44.392C1297.06 43.496 1297.77 42.792 1298.69 42.28C1299.61 41.7467 1300.64 41.48 1301.79 41.48C1302.94 41.48 1303.96 41.768 1304.83 42.344C1305.73 42.92 1306.43 43.6773 1306.94 44.616C1307.46 45.5333 1307.71 46.5147 1307.71 47.56V57H1304.83ZM1294.08 57V41.8H1296.96V57H1294.08ZM1313.76 57V35.432H1316.64V57H1313.76ZM1310.02 44.424V41.8H1320.38V44.424H1310.02ZM1329.2 57.32C1327.81 57.32 1326.56 56.9787 1325.43 56.296C1324.29 55.592 1323.4 54.6427 1322.74 53.448C1322.1 52.2533 1321.78 50.9093 1321.78 49.416C1321.78 47.9227 1322.1 46.5787 1322.74 45.384C1323.4 44.1893 1324.28 43.24 1325.39 42.536C1326.52 41.832 1327.79 41.48 1329.2 41.48C1330.35 41.48 1331.38 41.7253 1332.27 42.216C1333.19 42.6853 1333.93 43.3467 1334.48 44.2C1335.04 45.032 1335.35 46.0027 1335.41 47.112V51.688C1335.35 52.776 1335.04 53.7467 1334.48 54.6C1333.95 55.4533 1333.22 56.1253 1332.31 56.616C1331.41 57.0853 1330.37 57.32 1329.2 57.32ZM1329.68 54.6C1331.11 54.6 1332.26 54.12 1333.14 53.16C1334.01 52.1787 1334.45 50.9307 1334.45 49.416C1334.45 48.3707 1334.25 47.464 1333.84 46.696C1333.46 45.9067 1332.9 45.2987 1332.18 44.872C1331.45 44.424 1330.61 44.2 1329.65 44.2C1328.69 44.2 1327.84 44.424 1327.09 44.872C1326.36 45.32 1325.79 45.9387 1325.36 46.728C1324.96 47.496 1324.75 48.3813 1324.75 49.384C1324.75 50.408 1324.96 51.3147 1325.36 52.104C1325.79 52.872 1326.37 53.48 1327.12 53.928C1327.87 54.376 1328.72 54.6 1329.68 54.6ZM1334.26 57V52.904L1334.8 49.192L1334.26 45.512V41.8H1337.17V57H1334.26ZM1348.31 57.32C1346.81 57.32 1345.46 56.968 1344.24 56.264C1343.05 55.56 1342.1 54.6107 1341.39 53.416C1340.71 52.2 1340.37 50.856 1340.37 49.384C1340.37 47.8907 1340.71 46.5467 1341.39 45.352C1342.1 44.1573 1343.05 43.2187 1344.24 42.536C1345.46 41.832 1346.81 41.48 1348.31 41.48C1349.48 41.48 1350.57 41.704 1351.57 42.152C1352.57 42.5787 1353.44 43.208 1354.16 44.04L1352.24 45.96C1351.77 45.4053 1351.2 44.9893 1350.51 44.712C1349.85 44.4133 1349.12 44.264 1348.31 44.264C1347.35 44.264 1346.49 44.488 1345.75 44.936C1345 45.3627 1344.41 45.96 1343.99 46.728C1343.56 47.496 1343.35 48.3813 1343.35 49.384C1343.35 50.3867 1343.56 51.272 1343.99 52.04C1344.41 52.808 1345 53.416 1345.75 53.864C1346.49 54.312 1347.35 54.536 1348.31 54.536C1349.12 54.536 1349.85 54.3973 1350.51 54.12C1351.2 53.8213 1351.78 53.3947 1352.27 52.84L1354.16 54.76C1353.46 55.5707 1352.59 56.2 1351.57 56.648C1350.57 57.096 1349.48 57.32 1348.31 57.32ZM1359.17 57V35.432H1362.05V57H1359.17ZM1355.42 44.424V41.8H1365.79V44.424H1355.42ZM1384.1 57.32C1382.46 57.32 1380.99 56.9573 1379.68 56.232C1378.4 55.4853 1377.39 54.472 1376.64 53.192C1375.9 51.8907 1375.52 50.4187 1375.52 48.776V34.792H1378.53V48.712C1378.53 49.8853 1378.78 50.8987 1379.27 51.752C1379.76 52.6053 1380.42 53.2667 1381.25 53.736C1382.11 54.2053 1383.05 54.44 1384.1 54.44C1385.19 54.44 1386.14 54.2053 1386.95 53.736C1387.78 53.2667 1388.43 52.6053 1388.9 51.752C1389.39 50.8987 1389.64 49.896 1389.64 48.744V34.792H1392.68V48.808C1392.68 50.4507 1392.3 51.912 1391.56 53.192C1390.81 54.472 1389.8 55.4853 1388.52 56.232C1387.24 56.9573 1385.76 57.32 1384.1 57.32ZM1401.94 57.32C1401.09 57.32 1400.28 57.2133 1399.51 57C1398.77 56.7653 1398.07 56.4453 1397.43 56.04C1396.79 55.6133 1396.24 55.112 1395.77 54.536L1397.62 52.68C1398.18 53.3627 1398.82 53.8747 1399.54 54.216C1400.27 54.536 1401.08 54.696 1401.98 54.696C1402.87 54.696 1403.57 54.5467 1404.06 54.248C1404.55 53.928 1404.79 53.4907 1404.79 52.936C1404.79 52.3813 1404.59 51.9547 1404.18 51.656C1403.8 51.336 1403.3 51.08 1402.68 50.888C1402.06 50.6747 1401.4 50.472 1400.7 50.28C1400.01 50.0667 1399.36 49.8 1398.74 49.48C1398.13 49.16 1397.61 48.7227 1397.21 48.168C1396.82 47.6133 1396.63 46.8773 1396.63 45.96C1396.63 45.0427 1396.86 44.2533 1397.3 43.592C1397.75 42.9093 1398.37 42.3867 1399.16 42.024C1399.97 41.6613 1400.94 41.48 1402.07 41.48C1403.27 41.48 1404.32 41.6933 1405.24 42.12C1406.18 42.5253 1406.95 43.144 1407.54 43.976L1405.69 45.832C1405.26 45.2773 1404.73 44.8507 1404.09 44.552C1403.47 44.2533 1402.77 44.104 1401.98 44.104C1401.14 44.104 1400.5 44.2533 1400.06 44.552C1399.63 44.8293 1399.42 45.224 1399.42 45.736C1399.42 46.248 1399.61 46.6427 1399.99 46.92C1400.38 47.1973 1400.88 47.432 1401.5 47.624C1402.14 47.816 1402.8 48.0187 1403.48 48.232C1404.16 48.424 1404.81 48.6907 1405.43 49.032C1406.05 49.3733 1406.55 49.832 1406.94 50.408C1407.34 50.984 1407.54 51.7413 1407.54 52.68C1407.54 54.1093 1407.03 55.24 1406.01 56.072C1405.01 56.904 1403.65 57.32 1401.94 57.32Z" fill="white"/>
<rect opacity="0.1" x="1261.5" y="65" width="138" height="110" fill="#0D0757"/>
</g>
</g>
<defs>
<filter id="filter0_dn_3_2" x="0" y="0" width="1448" height="183" filterUnits="userSpaceOnUse" color-interpolation-filters="sRGB">
<feFlood flood-opacity="0" result="BackgroundImageFix"/>
<feColorMatrix in="SourceAlpha" type="matrix" values="0 0 0 0 0 0 0 0 0 0 0 0 0 0 0 0 0 0 127 0" result="hardAlpha"/>
<feOffset dy="4"/>
<feGaussianBlur stdDeviation="2"/>
<feComposite in2="hardAlpha" operator="out"/>
<feColorMatrix type="matrix" values="0 0 0 0 0 0 0 0 0 0 0 0 0 0 0 0 0 0 0.25 0"/>
<feBlend mode="normal" in2="BackgroundImageFix" result="effect1_dropShadow_3_2"/>
<feBlend mode="normal" in="SourceGraphic" in2="BackgroundImageFix" result="shape"/>
<feTurbulence type="fractalNoise" baseFrequency="2 2" stitchTiles="stitch" numOctaves="3" result="noise" seed="2077" />
<feColorMatrix in="noise" type="luminanceToAlpha" result="alphaNoise" />
<feComponentTransfer in="alphaNoise" result="coloredNoise1">
<feFuncA type="discrete" tableValues="1 1 1 1 1 1 1 1 1 1 1 1 1 1 1 1 1 1 1 1 1 1 1 1 1 1 1 1 1 1 1 1 1 1 1 1 1 1 1 1 1 1 1 1 1 1 1 1 1 1 1 0 0 0 0 0 0 0 0 0 0 0 0 0 0 0 0 0 0 0 0 0 0 0 0 0 0 0 0 0 0 0 0 0 0 0 0 0 0 0 0 0 0 0 0 0 0 0 0 0 "/>
</feComponentTransfer>
<feComposite operator="in" in2="shape" in="coloredNoise1" result="noise1Clipped" />
<feFlood flood-color="rgba(0, 0, 0, 0.25)" result="color1Flood" />
<feComposite operator="in" in2="noise1Clipped" in="color1Flood" result="color1" />
<feMerge result="effect2_noise_3_2">
<feMergeNode in="shape" />
<feMergeNode in="color1" />
</feMerge>
<feBlend mode="normal" in="effect2_noise_3_2" in2="effect1_dropShadow_3_2" result="effect2_noise_3_2"/>
</filter>
<filter id="filter1_dn_3_2" x="366" y="0" width="146" height="118" filterUnits="userSpaceOnUse" color-interpolation-filters="sRGB">
<feFlood flood-opacity="0" result="BackgroundImageFix"/>
<feColorMatrix in="SourceAlpha" type="matrix" values="0 0 0 0 0 0 0 0 0 0 0 0 0 0 0 0 0 0 127 0" result="hardAlpha"/>
<feOffset dy="4"/>
<feGaussianBlur stdDeviation="2"/>
<feComposite in2="hardAlpha" operator="out"/>
<feColorMatrix type="matrix" values="0 0 0 0 0 0 0 0 0 0 0 0 0 0 0 0 0 0 0.25 0"/>
<feBlend mode="normal" in2="BackgroundImageFix" result="effect1_dropShadow_3_2"/>
<feBlend mode="normal" in="SourceGraphic" in2="BackgroundImageFix" result="shape"/>
<feTurbulence type="fractalNoise" baseFrequency="2 2" stitchTiles="stitch" numOctaves="3" result="noise" seed="9735" />
<feColorMatrix in="noise" type="luminanceToAlpha" result="alphaNoise" />
<feComponentTransfer in="alphaNoise" result="coloredNoise1">
<feFuncA type="discrete" tableValues="1 1 1 1 1 1 1 1 1 1 1 1 1 1 1 1 1 1 1 1 1 1 1 1 1 1 1 1 1 1 1 1 1 1 1 1 1 1 1 1 1 1 1 1 1 1 1 1 1 1 1 0 0 0 0 0 0 0 0 0 0 0 0 0 0 0 0 0 0 0 0 0 0 0 0 0 0 0 0 0 0 0 0 0 0 0 0 0 0 0 0 0 0 0 0 0 0 0 0 0 "/>
</feComponentTransfer>
<feComposite operator="in" in2="shape" in="coloredNoise1" result="noise1Clipped" />
<feFlood flood-color="rgba(0, 0, 0, 0.25)" result="color1Flood" />
<feComposite operator="in" in2="noise1Clipped" in="color1Flood" result="color1" />
<feMerge result="effect2_noise_3_2">
<feMergeNode in="shape" />
<feMergeNode in="color1" />
</feMerge>
<feBlend mode="normal" in="effect2_noise_3_2" in2="effect1_dropShadow_3_2" result="effect2_noise_3_2"/>
</filter>
<filter id="filter2_d_3_2" x="654" y="0" width="146" height="118" filterUnits="userSpaceOnUse" color-interpolation-filters="sRGB">
<feFlood flood-opacity="0" result="BackgroundImageFix"/>
<feColorMatrix in="SourceAlpha" type="matrix" values="0 0 0 0 0 0 0 0 0 0 0 0 0 0 0 0 0 0 127 0" result="hardAlpha"/>
<feOffset dy="4"/>
<feGaussianBlur stdDeviation="2"/>
<feComposite in2="hardAlpha" operator="out"/>
<feColorMatrix type="matrix" values="0 0 0 0 0 0 0 0 0 0 0 0 0 0 0 0 0 0 0.25 0"/>
<feBlend mode="normal" in2="BackgroundImageFix" result="effect1_dropShadow_3_2"/>
<feBlend mode="normal" in="SourceGraphic" in2="effect1_dropShadow_3_2" result="shape"/>
</filter>
<filter id="filter3_d_3_2" x="942" y="0" width="146" height="118" filterUnits="userSpaceOnUse" color-interpolation-filters="sRGB">
<feFlood flood-opacity="0" result="BackgroundImageFix"/>
<feColorMatrix in="SourceAlpha" type="matrix" values="0 0 0 0 0 0 0 0 0 0 0 0 0 0 0 0 0 0 127 0" result="hardAlpha"/>
<feOffset dy="4"/>
<feGaussianBlur stdDeviation="2"/>
<feComposite in2="hardAlpha" operator="out"/>
<feColorMatrix type="matrix" values="0 0 0 0 0 0 0 0 0 0 0 0 0 0 0 0 0 0 0.25 0"/>
<feBlend mode="normal" in2="BackgroundImageFix" result="effect1_dropShadow_3_2"/>
<feBlend mode="normal" in="SourceGraphic" in2="effect1_dropShadow_3_2" result="shape"/>
</filter>
<filter id="filter4_d_3_2" x="1231" y="25" width="199" height="158" filterUnits="userSpaceOnUse" color-interpolation-filters="sRGB">
<feFlood flood-opacity="0" result="BackgroundImageFix"/>
<feColorMatrix in="SourceAlpha" type="matrix" values="0 0 0 0 0 0 0 0 0 0 0 0 0 0 0 0 0 0 127 0" result="hardAlpha"/>
<feOffset dy="4"/>
<feGaussianBlur stdDeviation="2"/>
<feComposite in2="hardAlpha" operator="out"/>
<feColorMatrix type="matrix" values="0 0 0 0 0 0 0 0 0 0 0 0 0 0 0 0 0 0 0.25 0"/>
<feBlend mode="normal" in2="BackgroundImageFix" result="effect1_dropShadow_3_2"/>
<feBlend mode="normal" in="SourceGraphic" in2="effect1_dropShadow_3_2" result="shape"/>
</filter>
</defs>
</svg>
